g Corps_01
v -1 -111 14.4656
v -1 -39 14.4656
v 0 -40 15.4656
v 0 -110 15.4656
v 101 -111 14.4656
v 100 -110 15.4656
v 101 -39 14.4656
v 100 -40 15.4656
v 100 -110 19
v 100 -40 19
v 0 -110 19
v 0 -40 19
v 110.48 -32.664 14.4656
v 110.48 -117.336 14.4656
v -10.48 -117.336 14.4656
v -10.48 -32.664 14.4656
v -10.48 -32.664 19.5344
v -10.48 -117.336 19.5344
v 110.48 -117.336 19.5344
v 110.48 -32.664 19.5344
vn 0.707107 0 -0.707107
vn -0 0.707107 -0.707107
vn -0.707107 -0 -0.707107
vn -0 -0.707107 -0.707107
vn -1 -0 0
vn -0 -0 -1
vn -0 1 -0
vn 1 0 -0
vn -0 -1 -0
vn -0 -0 -1
vn -1 -0 -0
vn 0 0 1
vn 0 1 0
vn 1 0 -0
vn 0 -1 0
vt 111 1.41421
vt 39 1.41421
vt 40 0
vt 110 0
vt 111.48 0
vt 9.48 0
vt 10.48 1.41421
vt 110.48 1.41421
vt -54.72 0
vt -126.72 0
vt -125.72 1.41421
vt -55.72 1.41421
vt -9.48 0
vt -111.48 0
vt -110.48 1.41421
vt -10.48 1.41421
vt -0 -35
vt 0 35
vt 3.5344 35
vt 3.5344 -35
vt 110 0
vt 40 0
vt 40 100
vt 110 100
vt -0 -50
vt 0 50
vt 3.5344 50
vt 3.5344 -50
vt -0 -40
vt -0 -110
vt 3.5344 -110
vt 3.5344 -40
vt 0 50
vt 0 -50
vt -3.5344 -50
vt -3.5344 50
vt 48.384 120.96
vt 54.72 111.48
vt 54.72 9.48
vt 133.056 120.96
vt 126.72 111.48
vt 133.056 0
vt 126.72 9.48
vt 48.384 0
vt 5.76 -48.384
vt 10.8288 -48.384
vt 10.8288 -133.056
vt 5.76 -133.056
vt 48.384 0
vt 133.056 0
vt 133.056 120.96
vt 48.384 120.96
vt -5.76 60.48
vt -10.8288 60.48
vt -10.8288 -60.48
vt -5.76 -60.48
vt 5.76 -42.336
vt 10.8288 -42.336
vt 10.8288 42.336
vt 5.76 42.336
vt 5.76 -60.48
vt 10.8288 -60.48
vt 10.8288 60.48
vt 5.76 60.48
f 1/1/1 2/2/1 3/3/1
f 3/3/1 4/4/1 1/1/1
f 5/5/2 1/6/2 4/7/2
f 4/7/2 6/8/2 5/5/2
f 7/9/3 5/10/3 6/11/3
f 6/11/3 8/12/3 7/9/3
f 2/13/4 7/14/4 8/15/4
f 8/15/4 3/16/4 2/13/4
f 9/17/5 10/18/5 8/19/5
f 8/19/5 6/20/5 9/17/5
f 11/21/6 12/22/6 10/23/6
f 10/23/6 9/24/6 11/21/6
f 11/25/7 9/26/7 6/27/7
f 6/27/7 4/28/7 11/25/7
f 12/29/8 11/30/8 4/31/8
f 4/31/8 3/32/8 12/29/8
f 10/33/9 12/34/9 3/35/9
f 3/35/9 8/36/9 10/33/9
f 13/37/10 7/38/10 2/39/10
f 14/40/10 5/41/10 7/38/10
f 7/38/10 13/37/10 14/40/10
f 14/40/10 15/42/10 1/43/10
f 1/43/10 5/41/10 14/40/10
f 15/42/10 16/44/10 2/39/10
f 2/39/10 1/43/10 15/42/10
f 2/39/10 16/44/10 13/37/10
f 17/45/11 16/46/11 15/47/11
f 15/47/11 18/48/11 17/45/11
f 17/49/12 18/50/12 19/51/12
f 19/51/12 20/52/12 17/49/12
f 20/53/13 13/54/13 16/55/13
f 16/55/13 17/56/13 20/53/13
f 19/57/14 14/58/14 13/59/14
f 13/59/14 20/60/14 19/57/14
f 18/61/15 15/62/15 14/63/15
f 14/63/15 19/64/15 18/61/15
g Corps_02
v 100 -110 19
v 100 -40 19
v 0 -40 19
v 0 -110 19
v 100 -40 17
v 100 -110 17
v 0 -110 17
v 0 -40 17
vn 0 0 1
vn 1 -0 -0
vn -0 -0 -1
vn -0 -1 0
vn -1 0 0
vn -0 1 -0
vt 110 100
vt 40 100
vt 40 0
vt 110 0
vt 0 35
vt 2 35
vt 2 -35
vt 0 -35
vt 110 0
vt 40 0
vt 40 100
vt 110 100
vt 0 50
vt 2 50
vt 2 -50
vt 0 -50
vt 0 -110
vt 2 -110
vt 2 -40
vt 0 -40
vt -0 -50
vt -2 -50
vt -2 50
vt 0 50
f 21/65/16 22/66/16 23/67/16
f 23/67/16 24/68/16 21/65/16
f 25/69/17 22/70/17 21/71/17
f 21/71/17 26/72/17 25/69/17
f 27/73/18 28/74/18 25/75/18
f 25/75/18 26/76/18 27/73/18
f 26/77/19 21/78/19 24/79/19
f 24/79/19 27/80/19 26/77/19
f 27/81/20 24/82/20 23/83/20
f 23/83/20 28/84/20 27/81/20
f 28/85/21 23/86/21 22/87/21
f 22/87/21 25/88/21 28/85/21
